<?xml version="1.0" encoding="UTF-8"?>
<svg width="21px" height="22px" viewBox="0 0 21 22" version="1.1" xmlns="http://www.w3.org/2000/svg" xmlns:xlink="http://www.w3.org/1999/xlink">
    <!-- Generator: Sketch 47.1 (45422) - http://www.bohemiancoding.com/sketch -->
    <title>Group 3</title>
    <desc>Created with Sketch.</desc>
    <defs></defs>
    <g id="Page-1" stroke="none" stroke-width="1" fill="none" fill-rule="evenodd">
        <g id="bboy-online-register-1" transform="translate(-1185.000000, -50.000000)" fill-rule="nonzero" fill="#E3CE4F">
            <g id="Group">
                <g id="Group-5" transform="translate(1185.000000, 50.000000)">
                    <g id="Group-3">
                        <path d="M10.5,11.6698096 C3.74147071,11.6698096 0.0193305439,14.8670816 0.0193305439,20.6727908 C0.0193305439,21.1262238 0.386830544,21.4937238 0.840263598,21.4937238 L20.1596925,21.4937238 C20.6131255,21.4937238 20.9806255,21.1262238 20.9806255,20.6727908 C20.9806695,14.8673891 17.2585293,11.6698096 10.5,11.6698096 Z" id="Shape"></path>
                        <path d="M10.5,0 C7.39547071,0 5.05445397,2.38811297 5.05445397,5.5547636 C5.05445397,8.8141569 7.49730753,11.4655167 10.5,11.4655167 C13.5026925,11.4655167 15.945546,8.8141569 15.945546,5.5550272 C15.945546,2.38811297 13.6045293,0 10.5,0 Z" id="Shape"></path>
                    </g>
                </g>
            </g>
        </g>
    </g>
</svg>