<svg width="21" height="12" viewBox="0 0 21 12" xmlns="http://www.w3.org/2000/svg">
    <path d="M11.408 11.069s.375-.043.567-.23c.176-.18.17-.51.17-.51s-.024-1.568.75-1.791c.762-.23 1.741 1.495 2.779 2.157.784.503 1.38.374 1.38.374h2.776s1.451-.1.763-1.165c-.056-.086-.4-.784-2.063-2.214-1.74-1.503-1.507-1.259.589-3.854 1.276-1.582 1.786-2.552 1.627-2.962-.152-.396-1.084-.33-1.084-.33h-3.131s-.232-.022-.404.078c-.167.094-.275.33-.275.33s-.495 1.252-1.154 2.287c-1.391 2.2-1.948 2.315-2.175 2.179-.53-.317-.397-1.273-.397-1.956 0-2.128.347-3.02-.676-3.25-.34-.072-.59-.122-1.458-.13-1.115-.013-2.059 0-2.593.245-.355.159-.63.525-.462.54.206.028.674.122.921.431.32.41.31 1.316.31 1.316s.184 2.509-.43 2.818c-.421.216-1-.223-2.24-2.214-.634-1.021-1.115-2.172-1.115-2.172S4.291.838 4.126.723c-.2-.137-.48-.18-.48-.18H.677S.232.557.067.737c-.145.158-.01.49-.01.49S2.38 6.323 5.011 8.868c2.414 2.336 5.154 2.2 5.154 2.2h1.242z" fill="#FFF" fill-rule="evenodd"/>
</svg>
